<?xml version="1.0" encoding="iso-8859-1"?>
<!-- Uploaded to: SVG Repo, www.svgrepo.com, Generator: SVG Repo Mixer Tools -->
<svg fill="#000000"  version="1.1" id="Layer_1" xmlns="http://www.w3.org/2000/svg" xmlns:xlink="http://www.w3.org/1999/xlink"
	 viewBox="0 0 512.001 512.001" xml:space="preserve">
<g>
	<g>
		<g>
			<path d="M460.442,332.319c-2.332,27.097-24.938,48.042-52.333,48.042c-2.366,0-4.759-0.162-7.112-0.482
				c-20.475-2.778-36.723-16.932-42.864-35.513v10.449c0,5.93-2.021,20.684-20.741,29.596c-5.903,2.811-13.328,5.02-22.694,6.754
				c-14.594,2.703-33.894,4.19-54.344,4.19c-20.445,0-39.743-1.488-54.34-4.191c-9.366-1.734-16.79-3.942-22.693-6.753
				c-18.723-8.912-20.744-23.667-20.744-29.596v-10.452c-6.14,18.583-22.388,32.736-42.866,35.514
				c-2.355,0.319-4.748,0.482-7.112,0.482c-27.828,0-50.713-21.613-52.427-49.331C25.56,348.175,6.068,369.017,6.068,389.456
				c0,23.376,25.49,47.277,69.934,65.574c48.682,20.043,113.684,31.082,183.033,31.082c69.349,0,134.351-11.038,183.034-31.082
				c44.443-18.297,69.933-42.198,69.933-65.574C512,369.528,493.454,349.216,460.442,332.319z"/>
			<path d="M408.027,147.499c3.615,5.848,9.871,9.065,16.275,9.065c3.429,0,6.902-0.924,10.033-2.858
				c8.978-5.55,11.757-17.33,6.207-26.307c-4.481-7.248-2.365-17.203,1.654-32.736c4.23-16.354,9.496-36.708-1.469-55.209
				c-5.383-9.08-17.107-12.078-26.187-6.696c-9.08,5.382-12.078,17.106-6.697,26.187c2.861,4.825,0.056,15.663-2.654,26.145
				C400.491,103.249,394.643,125.85,408.027,147.499z"/>
			<path d="M471.57,147.499c3.615,5.847,9.871,9.065,16.275,9.065c3.429,0,6.901-0.924,10.033-2.858
				c8.978-5.55,11.757-17.329,6.206-26.307c-4.481-7.248-2.364-17.203,1.654-32.735c4.232-16.355,9.496-36.709-1.469-55.21
				c-5.382-9.08-17.107-12.078-26.187-6.696c-9.08,5.382-12.079,17.106-6.697,26.187c2.861,4.825,0.056,15.663-2.654,26.146
				C464.034,103.249,458.187,125.85,471.57,147.499z"/>
			<path d="M82.931,281.749c-0.656,15.885,1.927,32.602,2.641,47.336c0.708,14.62,12.813,25.793,27.025,25.793
				c1.217,0,2.446-0.082,3.687-0.25c13.765-1.867,23.889-13.84,23.445-27.725l-1.498-46.704l49.827-26.29v100.908
				c0,10.037,36.15,15.057,72.293,15.057c36.152,0,72.297-5.018,72.297-15.058V253.909l32.618,17.21l15.051,7.941l2.16,1.139
				l-0.808,25.183l-0.691,21.52c-0.446,13.885,9.679,25.857,23.445,27.725c1.24,0.168,2.472,0.25,3.688,0.25
				c14.212,0,26.314-11.168,27.025-25.788c1.855-38.113,9.146-72.571-24.502-99.128c-18.589-14.672-36.742-31.331-56.115-44.808
				c-12.339-8.583-26.902-12.091-41.631-13.747c-16.503-1.855-28.905,3.721-44.989,3.721h-9.7h-9.702
				c-11.998,0-22.353-4.842-34.277-4.633c-28.417,0.498-46.126,13.857-68.175,29.365c-19.738,13.883-41.151,28.306-54.252,49.11
				C85.679,258.68,83.418,269.987,82.931,281.749z"/>
			<path d="M51.156,164.344c28.206,0,51.154-22.949,51.154-51.157c0-10.266-3.031-20.15-8.77-28.632L63.984,33.361
				c-2.669-4.623-7.603-7.472-12.94-7.472s-10.271,2.848-12.94,7.472L6.598,87.931C6.293,88.459,6.024,89,5.79,89.552
				C1.997,96.825,0,104.959,0,113.187C0,141.394,22.948,164.344,51.156,164.344z"/>
			<path d="M244.398,145.937c4.135,0,8.906-0.001,14.443-0.001c5.535,0,10.304,0,14.438,0.001
				c16.768-2.466,29.639-16.907,29.639-34.358V92.893c0-19.184-15.551-34.735-34.737-34.735h-18.685
				c-19.184,0-34.735,15.551-34.735,34.735v18.686C214.761,129.029,227.632,143.47,244.398,145.937z"/>
		</g>
	</g>
</g>
</svg>