<?xml version="1.0" encoding="UTF-8" standalone="no"?>
<!-- Created with Inkscape (http://www.inkscape.org/) -->

<svg
   width="12.7mm"
   height="12.7mm"
   viewBox="0 0 12.7 12.7"
   version="1.1"
   id="svg1"
   xml:space="preserve"
   xmlns="http://www.w3.org/2000/svg"
   xmlns:svg="http://www.w3.org/2000/svg"><defs
     id="defs1"><clipPath
       clipPathUnits="userSpaceOnUse"
       id="clipPath1294"><path
         d="m 0,0.001 h 1683.779 v 1190.55 H 0 Z"
         transform="translate(-675.05771,-1131.4237)"
         id="path1294" /></clipPath><clipPath
       clipPathUnits="userSpaceOnUse"
       id="clipPath1296"><path
         d="m 0,0.001 h 1683.779 v 1190.55 H 0 Z"
         transform="translate(-671.13671,-1146.0208)"
         id="path1296" /></clipPath></defs><g
     id="layer1"
     transform="translate(-34.965787,-226.11402)"><g
       id="g2798"
       transform="matrix(0.41420248,0,0,0.41420248,-352.17542,160.83495)"><path
         id="path1293"
         d="m 0,0 h -20.696 c -0.635,0 -1.15,0.515 -1.15,1.15 v 20.696 c 0,0.635 0.515,1.15 1.15,1.15 H 0 c 0.635,0 1.15,-0.515 1.15,-1.15 V 1.15 C 1.15,0.515 0.635,0 0,0"
         style="fill:#ffffff;fill-opacity:1;fill-rule:nonzero;stroke:none"
         transform="matrix(1.3333333,0,0,-1.3333333,963.79456,188.26317)"
         clip-path="url(#clipPath1294)" /><path
         id="path1295"
         d="m 0,0 c 0.61,0 1.105,-0.495 1.105,-1.105 0,-0.61 -0.495,-1.104 -1.105,-1.104 -0.61,0 -1.105,0.494 -1.105,1.104 C -1.105,-0.495 -0.61,0 0,0 m -3.939,-2.327 c 0.102,0.101 0.239,0.158 0.382,0.159 l 2.09,0.007 c 0.021,0 0.041,-0.002 0.062,-0.004 0.039,0 0.079,-0.005 0.118,-0.018 l 1.117,-0.364 c 0.182,-0.029 0.344,-0.149 0.418,-0.332 l 0.647,-1.593 1.271,-10e-4 c 0.017,0 0.034,-0.001 0.05,-0.003 V 5.588 h -17.253 v -5.776 h 7.643 L -9.9,2.317 c -0.246,0.247 -0.246,0.646 0,0.892 0.246,0.246 0.646,0.246 0.892,0 l 3.614,-3.614 c 0.246,-0.246 0.246,-0.645 0,-0.891 L -9.008,-4.91 c -0.123,-0.123 -0.285,-0.185 -0.446,-0.185 -0.161,0 -0.323,0.062 -0.446,0.185 -0.246,0.246 -0.246,0.645 0,0.892 l 2.569,2.569 h -7.706 v -10.29 l 8.183,-0.006 h 9.062 10e-4 0.007 v 6.187 C 2.199,-5.56 2.182,-5.561 2.165,-5.561 L 0.573,-5.56 c -0.237,0 -0.458,0.132 -0.546,0.336 l -0.328,0.807 -0.686,-2.105 1.363,-1.607 C 0.398,-8.18 0.412,-8.236 0.422,-8.295 v -0.002 c 0.014,-0.083 0.015,-0.171 0,-0.256 l 0.004,-2.648 c -0.002,-0.3 -0.247,-0.542 -0.547,-0.54 -0.058,10e-4 -0.114,0.01 -0.167,0.027 -0.25,0.05 -0.439,0.272 -0.437,0.537 l -0.004,2.482 -1.458,1.524 -1.135,-1.383 C -3.41,-8.661 -3.531,-8.723 -3.658,-8.743 l -10e-4,-0.009 -3.02,0.004 c -0.201,0 -0.375,0.11 -0.469,0.272 -0.093,0.098 -0.15,0.23 -0.15,0.375 0.001,0.3 0.245,0.543 0.545,0.543 l 2.709,-0.004 0.978,1.192 c 0.003,0.018 0.006,0.035 0.011,0.052 l 1,3.067 -1.275,-0.004 -0.97,-0.966 c -0.213,-0.212 -0.558,-0.211 -0.769,0.002 -0.212,0.213 -0.212,0.557 0.001,0.769 z"
         style="fill:#00a650;fill-opacity:1;fill-rule:nonzero;stroke:none"
         transform="matrix(1.3333333,0,0,-1.3333333,958.56656,168.80037)"
         clip-path="url(#clipPath1296)" /></g></g></svg>
