<?xml version="1.0" encoding="utf-8"?>
<svg viewBox="0 0 16 16" xmlns="http://www.w3.org/2000/svg">
    <path d="M 15.284 8.034 C 15.284 13.607 9.242 17.09 4.41 14.304 C 2.165 13.01 0.784 10.621 0.784 8.034 C 0.784 2.462 6.826 -1.022 11.66 1.765 C 13.903 3.059 15.284 5.448 15.284 8.034" style="fill: rgb(255, 255, 255); stroke: rgb(255, 255, 255);"/>
    <path d="M 9.346 3.872 L 11.607 3.872 C 11.816 3.872 11.984 4.04 11.984 4.249 L 11.984 6.51 C 11.984 6.663 11.893 6.8 11.752 6.859 C 11.61 6.917 11.449 6.886 11.34 6.777 L 10.727 6.165 L 9.361 7.531 C 9.214 7.679 8.976 7.679 8.83 7.531 L 8.327 7.028 C 8.179 6.88 8.179 6.642 8.327 6.496 L 9.692 5.13 L 9.079 4.516 C 8.97 4.407 8.939 4.246 8.997 4.104 C 9.056 3.963 9.193 3.872 9.346 3.872 Z M 6.582 11.912 L 4.321 11.912 C 4.112 11.912 3.944 11.744 3.944 11.535 L 3.944 9.274 C 3.944 9.121 4.035 8.983 4.176 8.925 C 4.318 8.867 4.48 8.898 4.588 9.007 L 5.2 9.619 L 6.566 8.253 C 6.714 8.106 6.953 8.106 7.099 8.253 L 7.601 8.755 C 7.749 8.903 7.749 9.142 7.601 9.288 L 6.235 10.654 L 6.848 11.267 C 6.956 11.375 6.987 11.537 6.929 11.678 C 6.871 11.819 6.733 11.91 6.581 11.91 L 6.582 11.912 Z" style="transform-origin: 7.964px 7.892px;"/>
</svg>