<?xml version="1.0" encoding="utf-8"?>
<svg xmlns="http://www.w3.org/2000/svg" viewBox="-624.62 -549.67 16.12 16.32" width="16.12px" height="16.32px">
    <g style="transform-origin: -632.17px -565.063px;" transform="matrix(1.034482955933, 0, 0, 1.034438967705, 8.098905332476, 16.106769561992)">
        <path d="M -617.67 -557.81 C -617.67 -552.24 -623.71 -548.76 -628.54 -551.54 C -630.79 -552.84 -632.17 -555.23 -632.17 -557.81 C -632.17 -563.39 -626.12 -566.87 -621.29 -564.08 C -619.05 -562.79 -617.67 -560.4 -617.67 -557.81" style="fill: rgb(255, 255, 255); stroke: rgb(255, 255, 255);" id="object-0"/>
        <path d="M -622.04 -558.51 C -622.04 -557.72 -622.3 -556.99 -622.74 -556.39 L -620.54 -554.19 C -620.33 -553.98 -620.33 -553.63 -620.54 -553.4 C -620.77 -553.19 -621.11 -553.19 -621.33 -553.4 L -623.52 -555.61 C -624.12 -555.16 -624.86 -554.9 -625.64 -554.9 C -627.64 -554.9 -629.25 -556.51 -629.25 -558.51 C -629.25 -560.5 -627.64 -562.12 -625.64 -562.12 C -623.66 -562.12 -622.04 -560.5 -622.04 -558.51 Z M -626.06 -556.99 C -626.06 -556.76 -625.87 -556.58 -625.64 -556.58 C -625.42 -556.58 -625.23 -556.76 -625.23 -556.99 L -625.23 -558.1 L -624.12 -558.1 C -623.89 -558.1 -623.71 -558.28 -623.71 -558.51 C -623.71 -558.74 -623.89 -558.92 -624.12 -558.92 L -625.23 -558.92 L -625.23 -560.03 C -625.23 -560.26 -625.42 -560.44 -625.64 -560.44 C -625.87 -560.44 -626.06 -560.26 -626.06 -560.03 L -626.06 -558.92 L -627.17 -558.92 C -627.4 -558.92 -627.58 -558.74 -627.58 -558.51 C -627.58 -558.28 -627.4 -558.1 -627.17 -558.1 L -626.06 -558.1 L -626.06 -556.99 Z" style="" id="object-1"/>
    </g>
    <path d="M -624.62 -549.67 L -608.5 -549.67 L -608.5 -533.35 L -624.62 -533.35 L -624.62 -549.67 Z" style="fill: rgb(255, 255, 255); fill-opacity: 0; stroke-width: 0px; stroke-miterlimit: 1; stroke-opacity: 0;"/>
</svg>