<?xml version="1.0" encoding="utf-8"?>
<svg viewBox="0 -64 50 40" xmlns="http://www.w3.org/2000/svg">
    <g id="object-2" transform="matrix(0.078125014901, 0, 0, 0.078125014901, -36.042961119965, -627.180906486796)" style="transform-origin: 36.043px 627.181px;">
        <path d="M 196.043 -192.019 C 189.743 -192.019 184.043 -188.319 181.443 -182.519 L 156.643 -127.119 L 99.943 -148.819 C 94.043 -151.119 87.343 -149.619 82.943 -145.219 C 78.543 -140.819 77.043 -134.119 79.343 -128.219 L 101.043 -71.519 L 45.543 -46.619 C 39.743 -44.019 36.043 -38.319 36.043 -32.019 C 36.043 -25.719 39.743 -20.019 45.543 -17.419 L 100.943 7.381 L 79.243 64.081 C 76.943 69.981 78.443 76.681 82.843 81.081 C 87.243 85.481 93.943 86.981 99.843 84.681 L 156.543 62.981 L 181.343 118.381 C 183.943 124.181 189.643 127.881 195.943 127.881 C 202.243 127.881 207.943 124.181 210.543 118.381 L 235.343 62.981 C 235.343 62.981 304.643 85.481 309.043 81.081 C 313.443 76.681 314.943 69.981 312.643 64.081 L 290.943 7.381 L 346.343 -17.419 C 352.143 -20.019 355.843 -25.719 355.843 -32.019 C 355.843 -38.319 352.143 -44.019 346.343 -46.619 L 290.943 -71.419 L 312.643 -128.119 C 314.943 -134.019 313.443 -140.719 309.043 -145.119 C 304.643 -149.519 297.943 -151.019 292.043 -148.719 L 235.443 -127.119 L 210.643 -182.519 C 208.043 -188.319 202.343 -192.019 196.043 -192.019 Z M 196.043 -96.019 C 245.31 -96.019 276.102 -42.686 251.468 -0.019 C 240.036 19.783 218.908 31.981 196.043 31.981 C 146.775 31.981 115.983 -21.352 140.617 -64.019 C 152.05 -83.821 173.178 -96.019 196.043 -96.019 Z M 228.043 -32.019 C 228.043 -56.653 201.376 -72.049 180.043 -59.732 C 170.142 -54.016 164.043 -43.451 164.043 -32.019 C 164.043 -7.385 190.709 8.011 212.043 -4.306 C 221.943 -10.022 228.043 -20.586 228.043 -32.019 Z M 644.043 255.981 L 68.043 255.981 C 50.343 255.981 36.043 270.281 36.043 287.981 C 36.043 305.681 50.343 319.981 68.043 319.981 L 644.043 319.981 C 661.743 319.981 676.043 305.681 676.043 287.981 C 676.043 270.281 661.743 255.981 644.043 255.981 Z" id="object-0"/>
        <path d="M 498.082 -64.786 L 412.819 44.243 C 410.581 47.044 409.376 50.778 409.376 54.579 C 409.376 63.115 415.287 69.983 422.63 69.983 L 436.917 69.983 L 394.803 118.93 C 392.392 121.73 391.015 125.599 391.015 129.599 C 391.015 137.935 396.811 144.67 403.982 144.67 L 423.146 144.67 L 380.343 204.353 C 378.335 207.153 377.245 210.687 377.245 214.355 C 377.245 223.024 383.27 230.026 390.729 230.026 L 487.41 230.026 L 487.41 251.365 C 487.41 263.168 495.615 272.704 505.769 272.704 C 515.926 272.704 524.13 263.168 524.13 251.365 L 524.13 230.026 L 620.811 230.026 C 628.27 230.026 634.295 223.024 634.295 214.355 C 634.295 210.687 633.204 207.153 631.196 204.353 L 588.392 144.67 L 607.556 144.67 C 614.729 144.67 620.523 137.935 620.523 129.599 C 620.523 125.599 619.147 121.73 616.737 118.93 L 574.623 69.983 L 588.909 69.983 C 596.197 69.983 602.164 63.115 602.164 54.579 C 602.164 50.778 600.958 47.044 598.721 44.243 L 513.458 -64.786 C 511.507 -67.32 508.696 -68.72 505.769 -68.72 C 502.844 -68.72 500.032 -67.32 498.082 -64.786 Z" style="" id="object-1"/>
    </g>
</svg>