<?xml version="1.0" encoding="utf-8"?>
<svg version="1.1" id="Layer_1" x="0px" y="0px" viewBox="0 0 48 48" style="enable-background:new 0 0 48 48" xmlns="http://www.w3.org/2000/svg">
  <g id="Layer_2_1_">
    <path d="M23,25.8h-0.4c-1.9,0-3.8,0-5.8,0c-1.1,0-1.7-0.7-1.5-1.8c0.4-2.8,0.7-5.6,1.1-8.4c0.2-1.4,0.4-2.9,0.6-4.3 c0.1-0.7,0.5-1.2,1.3-1.3c0.1,0,0.3,0,0.4,0c2.4,0,4.7,0,7.1,0c0.2,0,0.4,0,0.7,0c0.7,0.1,1.2,0.7,1.1,1.4c0,0,0,0.1,0,0.1 c0,0.2-0.1,0.4-0.2,0.6c-0.7,2.1-1.4,4.1-2,6.2c0,0.1-0.1,0.2-0.1,0.4c0.2,0,0.3,0,0.4,0c1.9,0,3.8,0,5.7,0c0.4,0,0.7,0.1,1,0.3 c0.6,0.5,0.7,1.2,0.2,1.9c-1.2,2.1-2.4,4.1-3.6,6.2c-2,3.4-3.9,6.8-5.9,10.2c-0.3,0.5-0.8,0.8-1.4,0.7c-0.5-0.1-0.9-0.4-1.1-0.9 c-0.1-0.2-0.1-0.5,0-0.7c0.5-2.1,1-4.1,1.5-6.2c0.3-1.3,0.6-2.7,1-4C23,26.1,23,26,23,25.8z" style="fill: rgb(226, 241, 62);"/>
  </g>
</svg>