<?xml version="1.0" encoding="utf-8"?>
<svg width="47.9999" height="47.9999" viewBox="0 0 47.9999 47.9999" xmlns="http://www.w3.org/2000/svg">
  <path d="M22.5,12A1.4984,1.4984,0,0,1,24,13.5v.5625L28.5,13.5a1.5,1.5,0,0,1,0,3L24,15.9375l-1.4532-.1829L22.5,15.75l-.0469.0046L21,15.9375,16.5,16.5a1.5,1.5,0,0,1,0-3l4.5.5625V13.5A1.4984,1.4984,0,0,1,22.5,12ZM12,22.5A1.4984,1.4984,0,0,1,13.5,21H18l1.0593-1.0594A1.4973,1.4973,0,0,1,20.1187,19.5H21V17.4468l1.5-.1875,1.5.1875V19.5h.8765a1.4971,1.4971,0,0,1,1.0594.4406L27,21h1.5A7.4979,7.4979,0,0,1,36,28.5,1.4985,1.4985,0,0,1,34.5,30h-3A1.4984,1.4984,0,0,1,30,28.5,1.4984,1.4984,0,0,0,28.5,27H26.8078a5.2489,5.2489,0,0,1-8.6157,0H13.5A1.4984,1.4984,0,0,1,12,25.5Zm20.475,9.3468a.5708.5708,0,0,1,1.05,0l.8531,1.9875a1.5322,1.5322,0,0,1,.1265.6141V34.5a1.5,1.5,0,1,1-3,0v-.0563a1.5489,1.5489,0,0,1,.1266-.6141l.8531-1.9875Z" style="fill: rgb(143, 187, 235);"/>
</svg>