<?xml version="1.0" encoding="utf-8"?>
<svg viewBox="0 0 16 16" xmlns="http://www.w3.org/2000/svg">
    <path d="M 15.284 8.034 C 15.284 13.607 9.242 17.09 4.41 14.304 C 2.165 13.01 0.784 10.621 0.784 8.034 C 0.784 2.462 6.826 -1.022 11.66 1.765 C 13.903 3.059 15.284 5.448 15.284 8.034" style="fill: rgb(255, 255, 255); stroke: rgb(255, 255, 255);" transform="matrix(1, 0, 0, 1, -3.552713678800501e-15, 0)"/>
    <path d="M 10.231 7.37 C 11.36 7.37 12.275 6.454 12.275 5.325 C 12.275 4.196 11.36 3.281 10.231 3.281 C 9.102 3.281 8.186 4.196 8.186 5.325 C 8.186 5.41 8.191 5.495 8.202 5.579 L 6.198 6.579 C 5.832 6.224 5.331 6.007 4.779 6.007 C 3.651 6.007 2.735 6.922 2.735 8.051 C 2.735 9.179 3.651 10.095 4.779 10.095 C 5.331 10.095 5.832 9.878 6.198 9.522 L 8.202 10.523 C 8.191 10.607 8.186 10.69 8.186 10.777 C 8.186 11.905 9.102 12.821 10.231 12.821 C 11.36 12.821 12.275 11.905 12.275 10.777 C 12.275 9.648 11.36 8.732 10.231 8.732 C 9.68 8.732 9.178 8.949 8.812 9.304 L 6.809 8.305 C 6.819 8.222 6.824 8.138 6.824 8.051 C 6.824 7.964 6.819 7.88 6.809 7.797 L 8.812 6.798 C 9.178 7.152 9.68 7.37 10.231 7.37 Z" style="" transform="matrix(1, 0, 0, 1, -3.552713678800501e-15, 0)"/>
</svg>