<?xml version="1.0" encoding="utf-8"?>
<svg viewBox="0 0 16 16" xmlns="http://www.w3.org/2000/svg">
  <path d="M 15.284 8.034 C 15.284 13.607 9.242 17.09 4.41 14.304 C 2.165 13.01 0.784 10.621 0.784 8.034 C 0.784 2.462 6.826 -1.022 11.66 1.765 C 13.903 3.059 15.284 5.448 15.284 8.034" style="fill: rgb(255, 255, 255); stroke: rgb(255, 255, 255);" transform="matrix(1, 0, 0, 1, -3.552713678800501e-15, 0)"/>
  <path d="M 5.674 5.056 C 5.427 4.808 5.006 4.921 4.915 5.258 C 4.873 5.414 4.918 5.582 5.033 5.696 L 7.431 8.09 L 5.033 10.484 C 4.785 10.732 4.898 11.152 5.236 11.243 C 5.392 11.285 5.56 11.239 5.674 11.125 L 8.072 8.73 L 10.47 11.125 C 10.717 11.373 11.138 11.26 11.229 10.922 C 11.271 10.767 11.226 10.599 11.111 10.484 L 8.713 8.09 L 11.111 5.696 C 11.359 5.449 11.246 5.028 10.908 4.938 C 10.752 4.896 10.584 4.942 10.47 5.056 L 8.072 7.451 L 5.674 5.056 Z" style="fill: rgb(255, 255, 255); stroke: rgb(0, 0, 0);" transform="matrix(1, 0, 0, 1, -3.552713678800501e-15, 0)"/>
</svg>