<?xml version="1.0" encoding="utf-8"?>
<svg width="16" height="16" fill="currentColor" class="bi bi-x-circle-fill" viewBox="0 0 16 16" xmlns="http://www.w3.org/2000/svg">
  <defs/>
  <path d="M 15.25 8 C 15.25 13.573 9.208 17.056 4.376 14.27 C 2.131 12.976 0.75 10.587 0.75 8 C 0.75 2.428 6.792 -1.056 11.626 1.731 C 13.869 3.025 15.25 5.414 15.25 8 M 5.602 4.966 C 5.355 4.718 4.934 4.831 4.843 5.168 C 4.801 5.324 4.846 5.492 4.961 5.606 L 7.359 8 L 4.961 10.394 C 4.713 10.642 4.826 11.062 5.164 11.153 C 5.32 11.195 5.488 11.149 5.602 11.035 L 8 8.64 L 10.398 11.035 C 10.645 11.283 11.066 11.17 11.157 10.832 C 11.199 10.677 11.154 10.509 11.039 10.394 L 8.641 8 L 11.039 5.606 C 11.287 5.359 11.174 4.938 10.836 4.848 C 10.68 4.806 10.512 4.852 10.398 4.966 L 8 7.361 L 5.602 4.966 Z" style="fill: rgb(0, 0, 0); stroke-width: 0.5px; stroke: rgb(255, 255, 255);"/>
</svg>