<svg id="Layer_1" data-name="Layer 1" xmlns="http://www.w3.org/2000/svg" xmlns:xlink="http://www.w3.org/1999/xlink" width="40.9146mm" height="41.2772mm" viewBox="0 0 115.9783 117.0063"><defs><linearGradient id="linear-gradient" x1="-290.3605" y1="2492.8656" x2="-316.9929" y2="2508.2418" gradientTransform="translate(2026.2451 -1554.2265) rotate(43.117)" gradientUnits="userSpaceOnUse"><stop offset="0" stop-color="#339c47"/><stop offset="1" stop-color="#1a7946"/></linearGradient><linearGradient id="linear-gradient-2" x1="-357.2059" y1="2526.7098" x2="-348.5217" y2="2550.5696" xlink:href="#linear-gradient"/><linearGradient id="linear-gradient-3" x1="-393.6926" y1="2503.4816" x2="-308.1251" y2="2503.4816" gradientTransform="translate(2026.2451 -1554.2265) rotate(43.117)" gradientUnits="userSpaceOnUse"><stop offset="0" stop-color="#56ba59"/><stop offset="1" stop-color="#5ac2aa"/></linearGradient><linearGradient id="linear-gradient-4" x1="-323.4695" y1="2552.922" x2="-316.5859" y2="2513.8834" xlink:href="#linear-gradient-3"/></defs><path d="M101.2289,96.7993v0a247.0048,247.0048,0,0,0,9.748-32.078,202.0963,202.0963,0,0,0,4.4749-29.0478l0-.0047c-.2267-14.8479-26.4049-12.3423-26.4049-12.3423A3.6036,3.6036,0,0,1,92.9032,27.04,175,175,0,0,1,88.567,59.2a224.4011,224.4011,0,0,1-8.78,28.9063l-1.2353,3.0464a.1612.1612,0,0,1-.0383.0552.1639.1639,0,0,1-.27-.0665S87.3865,114.5458,101.2289,96.7993Z" fill="url(#linear-gradient)"/><path d="M33.5149,43.8879l-7.5583-1.86a.1646.1646,0,0,1-.0345-.3065s-27.7637,10.1551-7.3465,22.918l22.3659,5.9045A11.6412,11.6412,0,0,1,48.9854,78.1S44.112,56.9715,33.5149,43.8879Z" fill="url(#linear-gradient-2)"/><path d="M57.0726,29.7106a172.2081,172.2081,0,0,1,31.9747-6.3842s26.1782-2.5056,26.4049,12.3423c.54-6.8.5364-11.4182.5188-12.8061A22.2785,22.2785,0,0,0,92.076.0587L92.0724.0523S73.6275.6577,50.1051,7.7246a235.93,235.93,0,0,0-37.18,14.6328A22.29,22.29,0,0,0,17.5254,64.36l-.0014.0019,1.0516.2776c-20.4172-12.7629,7.3465-22.918,7.3465-22.918A220.2433,220.2433,0,0,1,57.0726,29.7106Z" fill="url(#linear-gradient-3)"/><path d="M98.6608,103.1292l.0049.0016s1.0192-2.2895,2.5632-6.3315c-13.8423,17.7465-22.9861-5.6578-22.9861-5.6578l-7.8675-24.427a28.1285,28.1285,0,0,0-20.0524-18.69l-22.7143-5.59C41.0373,48.96,48.9854,78.1,48.9854,78.1l7.807,23.5094.0014-.0032a22.2883,22.2883,0,0,0,41.867,1.5231Z" fill="url(#linear-gradient-4)"/></svg>