<?xml version="1.0" encoding="utf-8"?>
<svg xmlns="http://www.w3.org/2000/svg" viewBox="201.711 114.033 48 48" width="48px" height="48px">
  <path d="M 225.711 114.033 C 244.911 114.033 249.711 118.833 249.711 138.033 C 249.711 157.233 244.911 162.033 225.711 162.033 C 206.511 162.033 201.711 157.233 201.711 138.033 C 201.711 118.833 206.511 114.033 225.711 114.033 Z" fill-rule="evenodd" style="fill: rgb(128, 128, 128);"/>
  <path d="M 225.915 126.488 C 228.342 126.535 230.743 127.005 233.008 127.876 C 235.05 128.659 236.939 129.793 238.59 131.227 C 239.25 131.802 239.885 132.411 240.488 133.045 C 241.526 134.178 240.981 136.008 239.492 136.388 C 238.675 136.584 237.818 136.288 237.297 135.629 C 236.31 134.553 235.174 133.622 233.925 132.865 C 230.26 130.653 225.844 130.053 221.722 131.207 C 219.975 131.711 218.329 132.516 216.858 133.585 C 215.819 134.392 214.844 135.279 213.941 136.236 C 212.86 137.382 210.943 136.928 210.492 135.418 C 210.274 134.691 210.477 133.902 211.019 133.37 C 212.71 131.51 214.703 129.947 216.913 128.748 C 218.776 127.767 220.791 127.107 222.874 126.796 C 223.881 126.653 224.901 126.588 225.915 126.488 Z" fill="#fff"/>
  <path d="M 235.838 139.986 C 235.728 141.688 233.816 142.632 232.398 141.686 C 232.32 141.634 232.247 141.578 232.177 141.517 C 231.524 140.889 230.84 140.294 230.127 139.735 C 228.454 138.544 226.339 138.156 224.353 138.677 C 222.883 139.06 221.557 139.864 220.538 140.99 C 220.121 141.448 219.65 141.854 219.135 142.197 C 217.625 142.973 215.841 141.823 215.925 140.127 C 215.943 139.753 216.056 139.39 216.254 139.071 C 216.718 138.477 217.23 137.922 217.784 137.411 C 218.466 136.737 219.225 136.146 220.044 135.649 C 222.889 133.933 226.332 133.515 229.505 134.501 C 230.801 134.878 232.012 135.501 233.072 136.336 C 233.866 137.006 234.622 137.718 235.34 138.469 C 235.709 138.884 235.889 139.433 235.838 139.986 Z" fill="#fff"/>
  <path d="M 229.344 145.938 C 229.401 148.679 226.469 150.453 224.067 149.132 C 221.665 147.81 221.595 144.385 223.94 142.965 C 224.476 142.641 225.088 142.464 225.714 142.451 C 227.682 142.405 229.311 143.97 229.344 145.938 Z" fill="#fff"/>
</svg>