<svg xmlns="http://www.w3.org/2000/svg" width="48" height="48" viewBox="0 0 48 48"><path d="M24,0C43.2,0,48,4.8,48,24S43.2,48,24,48,0,43.2,0,24,4.8,0,24,0Z" fill="#eab442"/><path d="M23.9989,32.0257c1.3944,0,2.7887.0076,4.1829-.0066.2684-.0027.33.0744.3269.334-.0145,1.1559-.0052,2.312-.0068,3.468a2.3456,2.3456,0,0,1-.4371,1.4143c-.2722.3763-.529.7639-.7931,1.1462a1.9566,1.9566,0,0,1-1.6911.8881q-1.5828.0059-3.1655,0a1.9416,1.9416,0,0,1-1.6882-.8926c-1.4453-2.1318-1.2074-1.3506-1.2278-3.9092-.0055-.6911.0123-1.3826-.0071-2.0731-.008-.2831.0535-.3813.3618-.3771C21.2353,32.0362,22.6172,32.0257,23.9989,32.0257Z" fill="#fff"/><path d="M33.8236,17.2456a9.4765,9.4765,0,0,0-3.15-5.9521A10.0714,10.0714,0,0,0,23.9777,8.73a9.6781,9.6781,0,0,0-2.9953.4654,9.2355,9.2355,0,0,0-4.8016,3.2793,9.8,9.8,0,0,0-2.0128,7.4915,8.6453,8.6453,0,0,0,1.7968,4.4457,20.1523,20.1523,0,0,1,3.4024,5.6.489.489,0,0,0,.56.3554c1.3571-.0128,2.7144-.0057,4.0716-.0057,1.37,0,2.7395-.0083,4.1092.0065a.4885.4885,0,0,0,.5472-.3756,17.3526,17.3526,0,0,1,3.0326-5.1234A9.4133,9.4133,0,0,0,33.8236,17.2456ZM24.21,14.0863c-.3525.0783-.7245.0684-1.0768.147a4.3633,4.3633,0,0,0-3.5184,3.3622A8.4792,8.4792,0,0,0,19.45,18.709a.8616.8616,0,0,1-.99.8482.8255.8255,0,0,1-.7638-1.0119c.0053-.0623.0007-.1256.0007-.1884a6.1349,6.1349,0,0,1,3.576-5.3867,5.7263,5.7263,0,0,1,2.7281-.5719.8478.8478,0,0,1,.8731.7167A.79.79,0,0,1,24.21,14.0863Z" fill="#fff"/></svg>