<svg id="Layer_1" data-name="Layer 1" xmlns="http://www.w3.org/2000/svg" width="48" height="48" viewBox="0 0 48 48"><path d="M48,24c0,19.2-4.8,24-24,24S0,43.2,0,24,4.8,0,24,0,48,4.8,48,24Z" transform="translate(0)" fill="#f36e24" fill-rule="evenodd"/><path d="M18.79,25.8839a2.77,2.77,0,0,1-.44,1.5366,2.9238,2.9238,0,0,1-1.289,1.0674,4.8346,4.8346,0,0,1-2.0122.3857,4.5271,4.5271,0,0,1-2.3019-.5271A3.0655,3.0655,0,0,1,11.701,27.334a2.3,2.3,0,0,1-.4018-1.2315.8349.8349,0,0,1,.8556-.8421.7258.7258,0,0,1,.511.1927,1.5182,1.5182,0,0,1,.3566.5723,3.8391,3.8391,0,0,0,.3891.7521A1.5769,1.5769,0,0,0,14,27.276a2.1748,2.1748,0,0,0,.9964.1961,2.2479,2.2479,0,0,0,1.3793-.3955,1.19,1.19,0,0,0,.5305-.9869,1.0453,1.0453,0,0,0-.2859-.7619,1.8515,1.8515,0,0,0-.74-.447q-.4538-.1541-1.2123-.3277a8.8544,8.8544,0,0,1-1.7-.5561,2.7427,2.7427,0,0,1-1.0867-.868,2.254,2.254,0,0,1-.4018-1.3662,2.35,2.35,0,0,1,.4237-1.3824,2.6776,2.6776,0,0,1,1.2281-.9293,5.0331,5.0331,0,0,1,1.89-.3247,4.672,4.672,0,0,1,1.5012.2156,3.1686,3.1686,0,0,1,1.0513.5723,2.388,2.388,0,0,1,.611.7487,1.7259,1.7259,0,0,1,.1926.7653.9023.9023,0,0,1-.2408.6141.77.77,0,0,1-.6012.2731.6908.6908,0,0,1-.4982-.164,2.1963,2.1963,0,0,1-.37-.5366,2.43,2.43,0,0,0-.6178-.8326,1.8035,1.8035,0,0,0-1.1573-.2991,2.0016,2.0016,0,0,0-1.192.3247.9437.9437,0,0,0-.4538.7811.7948.7948,0,0,0,.1543.4887,1.3014,1.3014,0,0,0,.4244.3537,2.8535,2.8535,0,0,0,.5463.2314q.2766.0835.9136.2442a14.4009,14.4009,0,0,1,1.4433.4116,4.4073,4.4073,0,0,1,1.0994.5463,2.2567,2.2567,0,0,1,.7074.8135A2.606,2.606,0,0,1,18.79,25.8839Z" transform="translate(0)" fill="#fff"/><path d="M21.9878,24.6818H21.32V27.71a1.256,1.256,0,0,1-.2642.8808.896.896,0,0,1-.6877.2829.8771.8771,0,0,1-.7074-.2957,1.3109,1.3109,0,0,1-.2506-.868V20.4576a1.0021,1.0021,0,0,1,1.17-1.17h3.1056a9.4306,9.4306,0,0,1,1.0994.0546,2.7737,2.7737,0,0,1,.8232.2216,2.3872,2.3872,0,0,1,.7841.5339,2.3387,2.3387,0,0,1,.5177.8067,2.7011,2.7011,0,0,1,.1769.9741,2.3529,2.3529,0,0,1-.5953,1.6845,3.4116,3.4116,0,0,1-1.803.894,3.4851,3.4851,0,0,1,.9708.7973,8.1139,8.1139,0,0,1,.8262,1.1216,8.3632,8.3632,0,0,1,.5659,1.0738,2.13,2.13,0,0,1,.2024.6592.6742.6742,0,0,1-.1189.37.8335.8335,0,0,1-.325.2893,1.0236,1.0236,0,0,1-.4756.1061.93.93,0,0,1-.54-.1509,1.4689,1.4689,0,0,1-.3763-.3826q-.1569-.2314-.4274-.6814l-.7645-1.2733a7.0146,7.0146,0,0,0-.7368-1.0674,1.8084,1.8084,0,0,0-.6591-.5012A2.2586,2.2586,0,0,0,21.9878,24.6818Zm1.0934-3.9608H21.32v2.5912h1.71a4.7847,4.7847,0,0,0,1.1573-.1189,1.3577,1.3577,0,0,0,.7172-.4052,1.1655,1.1655,0,0,0,.2475-.7875,1.1905,1.1905,0,0,0-.7525-1.1382A3.9843,3.9843,0,0,0,23.0812,20.721Z" transform="translate(0)" fill="#fff"/><path d="M32.0526,19.1264a5.0306,5.0306,0,0,1,2.5171.5949,3.8588,3.8588,0,0,1,1.5915,1.6908,5.7693,5.7693,0,0,1,.54,2.5751,6.2982,6.2982,0,0,1-.2957,1.9866,4.2986,4.2986,0,0,1-.8872,1.55,3.8714,3.8714,0,0,1-1.4531,1.0027,5.7272,5.7272,0,0,1-3.9537-.0094,3.9229,3.9229,0,0,1-1.46-1.0065,4.301,4.301,0,0,1-.8842-1.5622,6.3025,6.3025,0,0,1-.2987-1.9738,6.098,6.098,0,0,1,.3115-1.993,4.286,4.286,0,0,1,.9038-1.5434,3.909,3.909,0,0,1,1.44-.9737A5.1771,5.1771,0,0,1,32.0526,19.1264Zm2.7135,4.848a4.4254,4.4254,0,0,0-.3349-1.794,2.4968,2.4968,0,0,0-.9541-1.1475,2.6268,2.6268,0,0,0-1.4245-.3891,2.5745,2.5745,0,0,0-1.0573.2156,2.3135,2.3135,0,0,0-.836.6269,2.9791,2.9791,0,0,0-.5531,1.0512,4.7587,4.7587,0,0,0-.2025,1.4369,4.8806,4.8806,0,0,0,.2025,1.4531,2.9752,2.9752,0,0,0,.5719,1.0768,2.4031,2.4031,0,0,0,.8488.64,2.68,2.68,0,0,0,2.3982-.1543,2.5324,2.5324,0,0,0,.9775-1.1314A4.3739,4.3739,0,0,0,34.7661,23.9744Z" transform="translate(0)" fill="#fff"/></svg>