<svg id="Layer_1" data-name="Layer 1" xmlns="http://www.w3.org/2000/svg" width="48" height="48" viewBox="0 0 48 48"><g id="Layer_2" data-name="Layer 2"><path d="M24,0C4.8,0,0,4.8,0,24S4.8,48,24,48s24-4.8,24-24S43.2,0,24,0Z" fill="gray" fill-rule="evenodd"/><path d="M23,25.8H16.8A1.3939,1.3939,0,0,1,15.3,24c.4-2.8.7-5.6,1.1-8.4.2-1.4.4-2.9.6-4.3A1.3972,1.3972,0,0,1,18.3,10h8.2a1.2443,1.2443,0,0,1,1.1,1.4v.1a1.4213,1.4213,0,0,1-.2.6c-.7,2.1-1.4,4.1-2,6.2,0,.1-.1.2-.1.4h6.1a1.6894,1.6894,0,0,1,1,.3,1.3,1.3,0,0,1,.2,1.9C31.4,23,30.2,25,29,27.1c-2,3.4-3.9,6.8-5.9,10.2a1.3432,1.3432,0,0,1-1.4.7,1.4414,1.4414,0,0,1-1.1-.9.8542.8542,0,0,1,0-.7c.5-2.1,1-4.1,1.5-6.2.3-1.3.6-2.7,1-4C23,26.1,23,26,23,25.8Z" fill="#fff"/></g></svg>