<svg id="Layer_1" class="navigation-svg" data-name="Layer 1" xmlns="http://www.w3.org/2000/svg" viewBox="0 0 257.7529 283.4648"><path d="M213.411,7.9422c-1.0914-3.6572-1.1336-3.642-3.7974-.8937-5.286,5.4538-10.06,11.4318-16.118,16.0987-10.9315,8.4212-23.4924,9.2144-36.3968,7.0807-19.0655-3.1525-37.0128-10.1279-54.8864-17.15A136.39,136.39,0,0,0,73.2222,4.94c-9.1906-1.4291-18.302-2.4861-27.3513.9689A67.4907,67.4907,0,0,0,27.5194,16.4557c-1.8812,1.5129-3.1176,1.5724-4.201-.8464a10.8359,10.8359,0,0,0-4.8291-5.0325,12.3383,12.3383,0,0,0-13.6323.9851C.4342,15.2009-.9586,19.888.64,25.38,3.0225,33.5642,5.4683,41.73,7.91,49.8974q30.137,100.8093,60.2855,201.6151c2.001,6.69,3.8677,13.428,6.1094,20.0376a12.3643,12.3643,0,0,0,23.6461-7.164c-.6388-2.59-1.434-5.1431-2.1975-7.7013Q84.432,218.7474,73.056,180.8263c-.7064-2.3431-.4784-4.0784,1.315-5.8187,2.7255-2.6448,5.1892-5.5583,7.894-8.2259,5.5637-5.4872,12.0833-8.7667,20.1261-8.4243a49.3219,49.3219,0,0,1,14.941,3.4761c15.323,5.6411,30.5315,11.601,46.21,16.2311,13.6212,4.0226,27.3382,7.4877,42.2306,7.5022,18.02.1246,34.1293-5.6789,46.9811-19.5053,5.865-6.31,5.9357-6.278,3.4475-14.6282Q234.8214,79.6832,213.411,7.9422ZM118.5731,37.15c.7769-.6228,1.7679-.0924,2.6349.2015,10.4974,3.559,21.0394,7.149,32.0847,8.3547,5.2943.5779,7.54,2.8182,8.8122,7.768,2.1422,8.3327,5.0139,16.4767,7.5268,24.716.8886,2.9135.391,3.59-1.3516,3.479-13.474-1.4618-25.6388-4.7284-37.66-8.6208A4.133,4.133,0,0,1,127.8821,70c-3.1237-10.09-6.2806-20.17-9.398-30.2616C118.2222,38.8905,117.7317,37.8246,118.5731,37.15ZM39.2777,74.3226c-1.3846,1.4755-2.4144,1.3557-3.0373-.662q-4.9031-15.88-9.7991-31.7629a2.7919,2.7919,0,0,1,.5033-2.8971c8.4743-9.0043,17.5657-17.0384,30.3775-19.164a16.09,16.09,0,0,1,1.7562-.1388c4.8263-.0178,5.6938.5821,6.994,4.76Q70.2333,37.83,74.344,51.217c1.0963,3.5715.8433,3.95-2.8271,4.0023-9.5657.1375-17.4175,4.228-24.203,10.6071C44.4786,68.4919,41.946,71.48,39.2777,74.3226Zm59.3564,67.7805c-12.1767.8259-21.8687,6.45-29.9165,15.32-4.7734,5.2611-4.8217,5.266-6.9272-1.44-2.6461-8.4273-5.1518-16.8992-7.8654-25.3044a5.0541,5.0541,0,0,1,1.36-5.8026c3.2748-3.2585,6.2351-6.8369,9.5563-10.044a33.3982,33.3982,0,0,1,21.28-9.3519c4.3539-.0472,5.2877.6391,6.4781,4.4992,2.9056,9.4224,5.8441,18.8349,8.7071,28.27C102.2454,141.3462,101.8674,141.8839,98.6341,142.1031Zm37.3-24.9523c-4.3664-1.4963-8.7318-3.0039-13.0445-4.6467-8.7239-3.3232-17.3666-6.8841-26.4965-8.9914a3.9288,3.9288,0,0,1-3.1543-2.949C89.3554,88.02,85.4285,75.4905,81.5729,62.9387c-.7741-2.52-.1669-3.03,2.6942-2.3023,6.9754,1.7749,13.6418,4.4618,20.3726,6.9657,6.0565,2.2531,12.1546,4.3985,18.27,6.488a5.5044,5.5044,0,0,1,3.8933,3.9007c3.7086,12.1679,7.5215,24.3039,11.2943,36.4523.1515.4879.2551.9906.372,1.451C138.4822,118.142,137.0335,117.5275,135.9343,117.1508ZM194.3108,168.21c-12.8061-1.7571-25.2227-5.2628-37.4549-9.4974a3.9864,3.9864,0,0,1-2.4376-2.9535c-2.951-9.5011-5.9491-18.9878-8.8531-28.5032-.8826-2.892-.312-3.4727,2.5658-2.5835a187.7088,187.7088,0,0,0,36.0283,7.7556,3.2225,3.2225,0,0,1,3.06,2.5237q4.7216,15.2876,9.48,30.5638C197.3666,167.6661,196.8475,168.7872,194.3108,168.21Zm31.6335-50.2117a51.8752,51.8752,0,0,1-32.6607,11.4988c-2.9477.3127-4.4515-.7188-5.2128-3.2158Q182.366,107.57,176.4964,88.91c-.6556-2.0982-.0684-3.1863,2.1937-3.203A55.1158,55.1158,0,0,0,213.4715,73.49c2.2393-1.7758,2.5882.3484,3.0059,1.7215,2.57,8.4485,5.0707,16.9178,7.5869,25.3824,1.2,4.0353,2.29,8.1062,3.6078,12.1021C228.4364,115.0136,227.7875,116.5078,225.9443,117.9979Z"/><path d="M87.32,250.7552q.8321-.832,1.6635-1.6649l-3.076,3.0055A9.7056,9.7056,0,0,0,87.32,250.7552Z" /><path d="M89.0384,249.0362h-.0009l-.0544.0545Z"/></svg>