<svg id="Layer_1" class="navigation-svg" data-name="Layer 1" xmlns="http://www.w3.org/2000/svg" viewBox="0 0 257.7529 283.4646"><path d="M87.32,250.755q.8321-.832,1.6635-1.6649l-3.076,3.0055A9.71,9.71,0,0,0,87.32,250.755Z"/><path d="M89.0384,249.036l-.0009,0-.0544.0545Z"/><path d="M223.4985,72.14H164.583v.0364c-18.3377.0212-38.0148.0437-38.6927.0437V69.21q0-24.2055-.0208-48.4109a31.5113,31.5113,0,0,0-.4841-5.9765c-1.3956-7.0971-5.581-11.8251-12.51-13.9783-7.47-2.3214-13.6193.3456-18.84,5.5237q-2.7636,2.7414-5.52,5.4906l.0067-.0136L85.02,15.3375q-1.4889,1.4838-2.9775,2.9678l-36.57,36.45c-.1574.1417-.3135.2873-.4647.4383q-4.9569,4.9491-9.91,9.9023l-2.6385,2.63.0055.0011Q19.4809,80.6968,6.5014,93.67c-8.6795,8.68-8.6718,20.1368.0428,28.8276q21.6381,21.5791,43.3017,43.1329,21.871,21.8254,43.716,43.677a30.5167,30.5167,0,0,0,4.2827,3.5423,17.5367,17.5367,0,0,0,24.0807-3.7335,19.1463,19.1463,0,0,0,3.9439-12.2633c.0524-16.6574.021-33.315.0211-49.9725v-2.7643c.9627-.05,1.6845-.1207,2.4063-.1209,19.2181-.0048,38.4362.0288,57.6542-.01V255.6237a27.8408,27.8408,0,0,0,27.8408,27.8409h16.1205a27.8408,27.8408,0,0,0,27.8408-27.8409V106.3944A34.2545,34.2545,0,0,0,223.4985,72.14Z"/></svg>