<svg id="Layer_1" data-name="Layer 1" class="navigation-svg" xmlns="http://www.w3.org/2000/svg" viewBox="0 0 257.7529 283.4646"><path d="M34.2545,72.14H93.17v.0364c18.3378.0212,38.0148.0437,38.6927.0437V69.21q0-24.2055.0209-48.4109a31.5031,31.5031,0,0,1,.484-5.9765c1.3957-7.0971,5.581-11.8251,12.51-13.9783,7.47-2.3214,13.6192.3456,18.84,5.5237q2.7636,2.7414,5.52,5.4906l-.0067-.0136,3.5038,3.4923q1.4889,1.4838,2.9775,2.9678l36.57,36.45c.1573.1417.3134.2873.4646.4383q4.9569,4.9491,9.91,9.9023l2.6386,2.63-.0056.0011q12.9831,12.97,25.9627,25.9428c8.6794,8.68,8.6717,20.1368-.0429,28.8276q-21.6381,21.5791-43.3017,43.1329-21.8709,21.8254-43.716,43.677a30.5215,30.5215,0,0,1-4.2826,3.5423,17.5368,17.5368,0,0,1-24.0808-3.7335,19.1456,19.1456,0,0,1-3.9438-12.2633c-.0524-16.6574-.0211-33.315-.0212-49.9725v-2.7643c-.9627-.05-1.6845-.1207-2.4063-.1209-19.218-.0048-38.4362.0288-57.6541-.01V255.6237a27.8409,27.8409,0,0,1-27.8409,27.8409h-16.12A27.8409,27.8409,0,0,1,0,255.6237V106.3944A34.2545,34.2545,0,0,1,34.2545,72.14Z"/></svg>