<svg id="Layer_1" data-name="Layer 1" class="navigation-svg" xmlns="http://www.w3.org/2000/svg" viewBox="0 0 214.4714 283.4646"><path d="M214.46,161.2763l.0039.0026-.0051-3.07q-.0033-5.7724-.0044-11.5449c0-.1761-.0062-.3519-.0154-.5261l-.07-42.55q-.0019-1.7322-.0057-3.4644l-.0067-4.0767-.0041.0118q-.0079-3.2079-.0168-6.4158c-.0246-6.0593-2.0537-11.1967-7.76-14.1968a14.1733,14.1733,0,0,0-15.4348.8559,25.9585,25.9585,0,0,0-3.7646,3.2005Q173.24,93.5746,159.1549,107.7l-1.253,1.253h0l-98.731-98.731,0,0C37.3353-11.6139,0,3.8509,0,34.7309V283.4646H59.1709V93.9018L116.06,150.7906l-.5556.5556.0021.0023-1.6108,1.6107q-3.3468,3.3468-6.6957,6.6915L91.8972,174.953q-3.5579,3.5658-7.1092,7.1382a15.778,15.778,0,0,0-4.8478,9.4442A14.4515,14.4515,0,0,0,91.7968,207.743a25.15,25.15,0,0,0,4.56.4315c16.975.03,33.95.005,50.9251.0227q25.1834.0261,50.3666.0983c10.1423.0139,16.8231-6.6579,16.8232-16.7732Q214.4716,176.3993,214.46,161.2763Z"/></svg>