<svg id="Layer_1" data-name="Layer 1" class="navigation-svg" xmlns="http://www.w3.org/2000/svg" viewBox="0 0 214.4714 283.4646"><path d="M.0116,161.2763l-.0039.0026.0051-3.07q.0033-5.7724.0044-11.5449c0-.1761.0062-.3519.0154-.5261l.07-42.55q.002-1.7322.0057-3.4644l.0067-4.0767.0041.0118Q.1271,92.85.1359,89.6426C.1605,83.5833,2.19,78.4459,7.8953,75.4458a14.1733,14.1733,0,0,1,15.4348.8559,25.9585,25.9585,0,0,1,3.7646,3.2005Q41.2318,93.5746,55.3165,107.7l1.253,1.253h0l98.731-98.731,0,0c21.8355-21.8355,59.1708-6.3707,59.1708,24.5093V283.4646H155.3005V93.9018L98.4117,150.7906l.5556.5556-.0021.0023,1.6108,1.6107q3.3468,3.3468,6.6958,6.6915l15.3024,15.3023q3.5578,3.5658,7.1092,7.1382a15.778,15.778,0,0,1,4.8478,9.4442,14.4515,14.4515,0,0,1-11.8566,16.2076,25.15,25.15,0,0,1-4.56.4315c-16.975.03-33.95.005-50.9251.0227q-25.1834.0261-50.3666.0983C6.6809,208.3094,0,201.6376,0,191.5223Q0,176.3993.0116,161.2763Z"/></svg>