<svg id="Layer_1" data-name="Layer 1" class="navigation-svg" xmlns="http://www.w3.org/2000/svg" viewBox="0 0 188.0461 283.4645"><path d="M188.0461,17.4051C188.046,6.9087,181.1136-.0144,170.5893,0q-26.1319.0357-52.2637.1021C100.7112.12,83.0968.0948,65.4823.1256A26.11,26.11,0,0,0,60.751.5733,14.9962,14.9962,0,0,0,48.4477,17.3915a16.3723,16.3723,0,0,0,5.0305,9.8Q68.539,42.347,83.6819,57.4206l1.6715,1.6714c-.5518.6125-.9456,1.0915-1.3819,1.5281C76.8729,67.7222,32.4,112.1825,6.97,137.6132A23.7189,23.7189,0,0,0,.0009,154.4011H0V283.4645H61.0422V170.4458l44.4365-44.4365-.0221-.022c11.0754-11.101,22.96-23.0125,23.37-23.4224.7492.7492,1.2846,1.2845,1.82,1.82q14.6361,14.6361,29.2848,29.26a26.9378,26.9378,0,0,0,3.9064,3.321,14.7073,14.7073,0,0,0,16.0162.8881c5.9205-3.1131,8.0261-8.4439,8.0516-14.7315q.0135-3.3288.0176-6.6575l.0042.0123.0069-4.23q.0032-1.7974.0059-3.5949l.0726-44.1528c.01-.1809.0158-.3633.0159-.546q.0046-5.99.0046-11.98l.0053-3.1856-.0041.0027Q188.0423,33.0977,188.0461,17.4051Z"/></svg>