<svg id="Layer_1" data-name="Layer 1" class="navigation-svg" xmlns="http://www.w3.org/2000/svg" viewBox="0 0 188.0461 283.4645"><path d="M0,17.4051C0,6.9087,6.9325-.0144,17.4568,0q26.132.0357,52.2637.1021C87.3349.12,104.9493.0948,122.5637.1256a26.1114,26.1114,0,0,1,4.7314.4477,14.9963,14.9963,0,0,1,12.3033,16.8182,16.3719,16.3719,0,0,1-5.0306,9.8Q119.5072,42.347,104.3642,57.4206l-1.6715,1.6714c.5518.6125.9456,1.0915,1.3819,1.5281,7.0986,7.1021,51.5713,51.5624,77.0019,76.9931a23.7188,23.7188,0,0,1,6.9686,16.7879h.001V283.4645H127.0039V170.4458L82.5674,126.0093l.022-.022c-11.0753-11.101-22.96-23.0125-23.3695-23.4224-.7493.7492-1.2846,1.2845-1.82,1.82q-14.6361,14.6361-29.2848,29.26a26.9378,26.9378,0,0,1-3.9064,3.321,14.7073,14.7073,0,0,1-16.0162.8881C2.272,134.74.1665,129.41.141,123.122q-.0135-3.3288-.0176-6.6575l-.0042.0123-.0069-4.23q-.0031-1.7974-.0059-3.5949L.0338,64.4988c-.0095-.1809-.0158-.3633-.016-.546q-.0045-5.99-.0046-11.98L.008,48.7875l.0041.0027Q.0038,33.0977,0,17.4051Z"/></svg>