<svg id="Layer_1" data-name="Layer 1" class="navigation-svg" xmlns="http://www.w3.org/2000/svg" viewBox="0 0 216.0582 283.4646"><path d="M209.69,94.0363q-2.7414-2.7638-5.4906-5.52l.0136.0067L200.7207,85.02q-1.4837-1.4889-2.9677-2.9775l-36.45-36.57c-.1416-.1574-.2872-.3135-.4382-.4647q-4.9492-4.9569-9.9023-9.91l-2.63-2.6385-.0011.0055q-12.97-12.9831-25.9427-25.9626c-8.68-8.6795-20.1368-8.6718-28.8277.0428Q71.9815,28.1823,50.4278,49.8459,28.6022,71.717,6.7507,93.5619a30.5236,30.5236,0,0,0-3.5423,4.2827,17.5368,17.5368,0,0,0,3.7335,24.0807,19.1463,19.1463,0,0,0,12.2633,3.9439c16.6575.0524,33.3151.021,49.9726.0211H71.942c.05.9627.1207,1.6845.1209,2.4063.003,11.7426-.0073,85.2821-.0072,127.34a27.8287,27.8287,0,0,0,27.8315,27.8282h16.2a27.8315,27.8315,0,0,0,27.8315-27.8316v-91.05h-.0364c-.0211-18.3377-.0437-38.0148-.0437-38.6927h3.01q24.2055,0,48.4109-.0208a31.51,31.51,0,0,0,5.9765-.4841c7.0972-1.3956,11.8252-5.581,13.9783-12.51C217.5352,105.4058,214.8682,99.2566,209.69,94.0363Z"/></svg>