<svg id="Layer_1" data-name="Layer 1" class="navigation-svg" xmlns="http://www.w3.org/2000/svg" viewBox="0 0 255.1517 283.4646"><path d="M255.1517,63.7439A63.6906,63.6906,0,0,0,191.4079,0H115.7822c-.6849,0-1.3663.0146-2.046.036A63.669,63.669,0,0,0,52.0384,63.7439V98.8448c0,24.3882.0047,63.4289.0055,82.2612,0,4.622,0,8.0319,0,9.7032,0,.5213-.051,1.0425-.0873,1.7378H49.96c-12.03,0-24.06-.0226-36.09.0153a13.8268,13.8268,0,0,0-8.8565,2.8482,12.6649,12.6649,0,0,0-2.6964,17.391,22.0407,22.0407,0,0,0,2.5582,3.0929q15.7512,15.8064,31.5435,31.5716,15.5894,15.6219,31.15,31.2723c6.2765,6.2937,14.5508,6.2993,20.8192.031q9.3715-9.3714,18.7357-18.75l.0009.004,1.8992-1.9056q3.5751-3.5791,7.1515-7.1569c.109-.1092.2142-.2219.3164-.3356l26.3244-26.411q1.0722-1.0746,2.1434-2.15l2.5221-2.53-.01.0048q1.9828-1.9929,3.9653-3.9862c3.74-3.77,5.6658-8.2111,3.9892-13.6059a12.421,12.421,0,0,0-10.0951-9.0344,22.7537,22.7537,0,0,0-4.3162-.35q-17.481-.04-34.9621-.015H103.88c0-.2783.0053-4.9922.0126-11.441.0056-4.8946.0123-10.7883.0189-16.5028h.0263V83.0675A31.1686,31.1686,0,0,1,135.1059,51.899h36.9783a31.1686,31.1686,0,0,1,31.1686,31.1685V98.8448h.0047c-.0016,44.9847-.0048,144.4364-.0047,164.5223a20.0977,20.0977,0,0,0,20.1,20.0974h11.6994a20.1,20.1,0,0,0,20.1-20.1v-65.756h-.0263c-.0049-4.2745-.01-65.9181-.0145-98.7639h.0408Z"/></svg>