<?xml version="1.0" encoding="utf-8"?>
<svg viewBox="0 0 48 48" xmlns="http://www.w3.org/2000/svg">
  <path d="M24,0C43.2,0,48,4.8,48,24S43.2,48,24,48,0,43.2,0,24,4.8,0,24,0Z" fill-rule="evenodd" style="fill: rgb(84, 129, 194);"/>
  <path d="M 39.701 23.479 L 36.571 13.419 C 36.312 12.581 35.537 12.01 34.661 12.009 L 12.921 12.009 C 12.044 12.01 11.269 12.581 11.011 13.419 L 7.881 23.489 C 7.821 23.68 7.791 23.879 7.791 24.079 L 7.791 32.009 C 7.791 33.114 8.686 34.009 9.791 34.009 L 37.791 34.009 C 38.895 34.009 39.791 33.114 39.791 32.009 L 39.791 24.069 C 39.79 23.869 39.76 23.67 39.701 23.479 Z M 37.791 32.009 L 9.791 32.009 L 9.791 24.069 L 12.921 14.009 L 34.661 14.009 L 37.791 24.069 L 37.791 32.009 Z" class="clr-i-outline clr-i-outline-path-1" style="fill: rgb(255, 255, 255);"/>
  <rect x="12.911" y="27.009" width="1.8" height="3" class="clr-i-outline clr-i-outline-path-2" style="fill: rgb(255, 255, 255);"/>
  <rect x="17.911" y="27.009" width="1.8" height="3" class="clr-i-outline clr-i-outline-path-3" style="fill: rgb(255, 255, 255);"/>
  <rect x="22.901" y="27.009" width="1.8" height="3" class="clr-i-outline clr-i-outline-path-4" style="fill: rgb(255, 255, 255);"/>
  <rect x="27.891" y="27.009" width="1.8" height="3" class="clr-i-outline clr-i-outline-path-5" style="fill: rgb(255, 255, 255);"/>
  <rect x="32.891" y="27.009" width="1.8" height="3" class="clr-i-outline clr-i-outline-path-6" style="fill: rgb(255, 255, 255);"/>
  <rect x="12.021" y="23.009" width="23.69" height="1.4" class="clr-i-outline clr-i-outline-path-7" style="fill: rgb(255, 255, 255);"/>
  <rect x="5.791" y="5.009" width="36" height="36" fill-opacity="0" style="paint-order: fill; fill: rgb(255, 255, 255);"/>
</svg>