<svg id="Layer_1" data-name="Layer 1" xmlns="http://www.w3.org/2000/svg" width="48" height="48" viewBox="0 0 48 48"><path d="M24,0C43.2,0,48,4.8,48,24S43.2,48,24,48,0,43.2,0,24,4.8,0,24,0Z" transform="translate(0 0)" fill="#7cc254" fill-rule="evenodd"/><path d="M24.2041,12.4545a20.8759,20.8759,0,0,1,7.0932,1.3887,18.7422,18.7422,0,0,1,5.5818,3.3511c.66.5749,1.2945,1.184,1.8982,1.818a2.032,2.032,0,0,1-.9958,3.3421,2.1566,2.1566,0,0,1-2.1958-.7581,15.399,15.399,0,0,0-3.3717-2.7644A15.5141,15.5141,0,0,0,20.0111,17.174a15.6624,15.6624,0,0,0-4.864,2.3777A25.5982,25.5982,0,0,0,12.23,22.203a2.0467,2.0467,0,1,1-2.9219-2.8657,22.4167,22.4167,0,0,1,5.8935-4.6227,18.7218,18.7218,0,0,1,5.961-1.9518C22.17,12.62,23.19,12.5549,24.2041,12.4545Z" transform="translate(0 0)" fill="#fff"/><path d="M34.1272,25.9529a2.2156,2.2156,0,0,1-3.6616,1.5314,26.6976,26.6976,0,0,0-2.0494-1.7825,6.9288,6.9288,0,0,0-5.7746-1.0584,7.7914,7.7914,0,0,0-3.8143,2.3139,7.607,7.607,0,0,1-1.4031,1.2069,2.2057,2.2057,0,0,1-2.8812-3.1259,13.816,13.816,0,0,1,1.5305-1.6608,12.2676,12.2676,0,0,1,2.26-1.7621,11.6348,11.6348,0,0,1,9.4606-1.1477,10.53,10.53,0,0,1,3.5674,1.8353,29.2736,29.2736,0,0,1,2.2675,2.133A2.0063,2.0063,0,0,1,34.1272,25.9529Z" transform="translate(0 0)" fill="#fff"/><path d="M27.633,31.905a3.561,3.561,0,1,1-3.63-3.4868A3.5468,3.5468,0,0,1,27.633,31.905Z" transform="translate(0 0)" fill="#fff"/></svg>